<svg xmlns="http://www.w3.org/2000/svg" width="12" height="12.001" viewBox="0 0 12 12.001"><path d="M6.224-1.475a1.254,1.254,0,0,0,2.034,0l.79-.785a.293.293,0,0,1,.232-.094H10.4A1.261,1.261,0,0,0,11.835-3.8V-4.908a.3.3,0,0,1,.1-.238l.785-.79a1.254,1.254,0,0,0,0-2.034l-.785-.79a.3.3,0,0,1-.1-.238V-10.11A1.258,1.258,0,0,0,10.4-11.552H9.281a.3.3,0,0,1-.232-.094l-.79-.785a1.248,1.248,0,0,0-2.034,0l-.79.785a.325.325,0,0,1-.238.094H4.085A1.258,1.258,0,0,0,2.642-10.11V-9a.3.3,0,0,1-.1.238l-.785.79a1.257,1.257,0,0,0,0,2.034l.785.79a.3.3,0,0,1,.1.238V-3.8A1.264,1.264,0,0,0,4.085-2.354H5.2a.3.3,0,0,1,.238.094Zm.144-2.808a.563.563,0,0,1-.426-.182L4.256-6.345a.508.508,0,0,1-.133-.348.51.51,0,0,1,.536-.52.509.509,0,0,1,.4.177L6.351-5.61,8.9-9.242a.5.5,0,0,1,.459-.243.5.5,0,0,1,.531.509.635.635,0,0,1-.116.337L6.816-4.5A.521.521,0,0,1,6.368-4.283Z" transform="translate(-1.24 12.956)" fill="#1bb065"/></svg>