<svg preserveAspectRatio="none" overflow="visible" style="display: block;" width="16" height="16" viewBox="0 0 16 16" fill="none" xmlns="http://www.w3.org/2000/svg">
<g id="rooms" style="mix-blend-mode:plus-darker">
<path id="shape" d="M7.33301 7.33301C7.33301 7.7012 7.63181 8 8 8H14V11.333C14 12.8058 12.8058 14 11.333 14H10C9.99982 11.791 8.20903 10 6 10C5.63181 10 5.33301 10.2988 5.33301 10.667V14H4.66699C3.19423 14 2 12.8058 2 11.333V4.66699C2 3.19423 3.19423 2 4.66699 2H7.33301V7.33301ZM6.66699 11.4209C7.81645 11.7173 8.66684 12.758 8.66699 14H6.66699V11.4209ZM11.333 2C12.8058 2 14 3.19423 14 4.66699V6.66699H9.33301C8.96497 6.66682 8.66699 6.36808 8.66699 6V2H11.333Z" fill="black" fill-opacity="0.6"/>
</g>
</svg>
