<svg preserveAspectRatio="none" width="100%" height="100%" overflow="visible" style="display: block;" viewBox="0 0 20 20" fill="none" xmlns="http://www.w3.org/2000/svg"><g id="Dollar 20"><path id="shape" d="M9.99837 3.16304C10.4126 3.16304 10.7484 3.49883 10.7484 3.91304V4.52242H11.137C12.8328 4.52251 14.1387 5.94789 14.139 7.6357C14.139 8.04991 13.8032 8.3857 13.389 8.3857C12.9748 8.38566 12.639 8.04989 12.639 7.6357C12.6387 6.70677 11.9365 6.02251 11.137 6.02242H10.7484V9.46382L12.2962 10.0019L12.3001 10.0029C12.755 10.1641 13.2476 10.4059 13.6107 10.8691C13.9805 11.3411 14.139 11.9421 14.139 12.6679C14.139 14.186 12.9524 15.4773 11.4212 15.4775H10.7484V16.0869C10.7484 16.5011 10.4126 16.8369 9.99837 16.8369C9.58433 16.8367 9.24837 16.501 9.24837 16.0869V15.4775H8.87435C7.17846 15.4774 5.8724 14.0513 5.8724 12.3632C5.8727 11.9493 6.20837 11.6132 6.6224 11.6132C7.03642 11.6132 7.37209 11.9493 7.3724 12.3632C7.3724 13.2924 8.07479 13.9774 8.87435 13.9775H9.24837V10.5302L7.71517 9.998L7.71126 9.99703C7.25641 9.83581 6.76381 9.59401 6.40072 9.13082C6.03094 8.65884 5.87242 8.05785 5.8724 7.33199C5.87244 5.81402 7.05904 4.52261 8.59017 4.52242H9.24837V3.91304C9.24837 3.49896 9.58433 3.16325 9.99837 3.16304ZM10.7484 13.9775H11.4212C12.0608 13.9773 12.639 13.4222 12.639 12.6679C12.639 12.1566 12.5291 11.9204 12.43 11.7939C12.3244 11.6592 12.1474 11.5411 11.804 11.4189L10.7484 11.0517V13.9775ZM8.59017 6.02242C7.95064 6.02262 7.37244 6.57782 7.3724 7.33199C7.37242 7.84333 7.48226 8.07954 7.58138 8.20601C7.68699 8.34072 7.86396 8.45879 8.20736 8.58101L9.24837 8.94234V6.02242H8.59017Z" fill="var(--fill-0, #919191)"/></g></svg>
